<svg xmlns="http://www.w3.org/2000/svg" width="33" height="33" viewBox="0 0 33 33"><defs><style>.a,.b,.c{fill:#313647;}.a{opacity:0;}.b{opacity:0.3;}</style></defs><rect class="a" width="33" height="33"/><g transform="translate(5 9)"><path class="b" d="M766.3-245.574a2,2,0,0,0,2.821,0l3.343-3.321a1.99,1.99,0,0,1,1.335-.577v0H761.619v0a1.993,1.993,0,0,1,1.336.577Z" transform="translate(-756.208 249.475)"/><path class="c" d="M750.721-249.47a2,2,0,0,0-1.41.578l-3.342,3.32a1.975,1.975,0,0,0,0,2.8l9.505,9.443a2,2,0,0,0,1.41.58,2,2,0,0,0,1.41-.58l9.505-9.443a1.973,1.973,0,0,0,0-2.8l-3.342-3.32a1.994,1.994,0,0,0-1.41-.578l-.076,0a1.991,1.991,0,0,0-1.335.576l-3.343,3.321a2,2,0,0,1-1.41.58,2,2,0,0,1-1.41-.58l-3.342-3.321a1.994,1.994,0,0,0-1.336-.576l-.076,0Z" transform="translate(-745.385 249.472)"/></g></svg>