
    <svg width="48" height="48" viewBox="0 0 48 48" fill="none" xmlns="http://www.w3.org/2000/svg">
    <title>figma Icons</title>
    <rect data-testid="card-bg" x="0.5" y="0.5" rx="4.5" height="99%" width="99%" fill="none" stroke-opacity="1"/>
    <svg width="48" height="48" fill="none" xmlns="http://www.w3.org/2000/svg"><path d="M17.733 44.4a6.733 6.733 0 006.734-6.733v-6.734h-6.734a6.733 6.733 0 000 13.467z" fill="#0ACF83"/><path d="M11 24.2a6.733 6.733 0 016.733-6.733h6.734v13.466h-6.734A6.733 6.733 0 0111 24.2z" fill="#A259FF"/><path d="M11 10.733A6.733 6.733 0 0117.733 4h6.734v13.467h-6.734A6.733 6.733 0 0111 10.733z" fill="#F24E1E"/><path d="M24.467 4H31.2a6.733 6.733 0 010 13.467h-6.733V4z" fill="#FF7262"/><path d="M37.933 24.2a6.733 6.733 0 11-13.466 0 6.733 6.733 0 0113.466 0z" fill="#1ABCFE"/></svg>
    <path d="M29.2516 33.093C33.73 30.5067 37.4716 27.0685 39.6534 23.5348C41.8352 20.0011 42.2785 16.6613 40.8857 14.2501C40.7862 14.0779 40.8277 13.8337 41.0009 13.5712C41.1742 13.3088 41.465 13.0496 41.8095 12.8506C42.154 12.6517 42.5239 12.5293 42.8378 12.5104C43.1518 12.4915 43.384 12.5776 43.4835 12.7499C44.8763 15.161 44.1593 18.6589 41.4903 22.4739C38.8213 26.289 34.4189 30.1088 29.2516 33.093V33.093Z" fill="gold">
                      <animateTransform attributeName="transform" type="rotate" from="180 0 0" to="0 0 0" dur="1s" repeatCount="indefinite" />
                      </path>
    
    </svg>