
    <svg width="48" height="48" viewBox="0 0 48 48" fill="none" xmlns="http://www.w3.org/2000/svg">
    <title>node Icons</title>
    <rect data-testid="card-bg" x="0.5" y="0.5" rx="4.5" height="99%" width="99%" fill="none" stroke-opacity="1"/>
    <svg width="48" height="48" fill="none" xmlns="http://www.w3.org/2000/svg"><path d="M17.204 19.122l-4.907 2.715a.563.563 0 00-.297.492v5.433c0 .203.113.39.297.492l4.908 2.717c.183.1.41.1.593 0l4.907-2.717a.566.566 0 00.295-.492v-5.433a.564.564 0 00-.297-.492l-4.906-2.715a.613.613 0 00-.594 0h.001zm25.247 4.89l-.818.453a.093.093 0 00-.049.082v.906c0 .034.019.065.049.082l.818.453a.102.102 0 00.099 0l.818-.453a.095.095 0 00.049-.082v-.906a.094.094 0 00-.05-.082l-.818-.452A.095.095 0 0042.5 24a.095.095 0 00-.049.013z" fill="#388E3C"/><path d="M35.751 13.364l-2.389-1.333a.243.243 0 00-.361.212L33 20.295l-2.203-1.219a.613.613 0 00-.594 0h.001l-4.907 2.715a.563.563 0 00-.297.491v5.433c0 .203.113.39.297.492l4.908 2.717c.183.101.41.101.593 0l4.907-2.717a.565.565 0 00.295-.492V13.788a.487.487 0 00-.249-.424zm-2.885 13.094l-2.23 1.235a.28.28 0 01-.269 0l-2.231-1.235a.255.255 0 01-.136-.224v-2.47c0-.092.051-.177.135-.224l2.231-1.234h-.001a.29.29 0 01.27 0l2.23 1.234a.259.259 0 01.135.225v2.47a.257.257 0 01-.134.223z" fill="#37474F"/><path d="M17.204 19.122L12 27.762c0 .203.113.39.297.492l4.908 2.717c.183.1.41.1.593 0L23 22.329a.564.564 0 00-.297-.492l-4.906-2.715a.613.613 0 00-.594 0" fill="#2E7D32"/><path d="M17.204 19.122l-4.907 2.715a.563.563 0 00-.297.492l5.204 8.642c.183.1.41.1.593 0l4.907-2.717a.565.565 0 00.296-.492l-5.203-8.64a.613.613 0 00-.594 0" fill="#4CAF50"/><path d="M47.703 21.791l-4.906-2.715a.613.613 0 00-.594 0h.001l-4.907 2.715a.574.574 0 00-.297.503v5.411c0 .209.114.402.297.503l4.908 2.717a.613.613 0 00.593 0l2.263-1.253a.3.3 0 00-.002-.526l-4.924-2.687a.263.263 0 01-.135-.228v-2.466c0-.092.05-.177.13-.221l2.235-1.236h-.001a.29.29 0 01.27 0l2.235 1.237c.08.044.13.129.13.221v2.012a.241.241 0 00.363.208l2.398-1.393a.483.483 0 00.24-.417v-1.88a.576.576 0 00-.297-.505zm-37 0l-4.906-2.715a.613.613 0 00-.594 0h.001L.297 21.791a.574.574 0 00-.297.503v7.465a.241.241 0 00.363.208l2.398-1.393A.482.482 0 003 28.157v-4.393c0-.092.05-.177.13-.221l2.235-1.236a.29.29 0 01.27 0l2.235 1.237c.08.044.13.129.13.221v4.393a.48.48 0 00.24.417l2.398 1.393a.246.246 0 00.242.001.245.245 0 00.12-.21v-7.464a.576.576 0 00-.297-.504z" fill="#37474F"/></svg>
    <path d="M29.2516 33.093C33.73 30.5067 37.4716 27.0685 39.6534 23.5348C41.8352 20.0011 42.2785 16.6613 40.8857 14.2501C40.7862 14.0779 40.8277 13.8337 41.0009 13.5712C41.1742 13.3088 41.465 13.0496 41.8095 12.8506C42.154 12.6517 42.5239 12.5293 42.8378 12.5104C43.1518 12.4915 43.384 12.5776 43.4835 12.7499C44.8763 15.161 44.1593 18.6589 41.4903 22.4739C38.8213 26.289 34.4189 30.1088 29.2516 33.093V33.093Z" fill="gold">
                      <animateTransform attributeName="transform" type="rotate" from="180 0 0" to="0 0 0" dur="1s" repeatCount="indefinite" />
                      </path>
    
    </svg>