
    <svg width="48" height="48" viewBox="0 0 48 48" fill="none" xmlns="http://www.w3.org/2000/svg">
    <title>react Icons</title>
    <rect data-testid="card-bg" x="0.5" y="0.5" rx="4.5" height="99%" width="99%" fill="none" stroke-opacity="1"/>
    <svg width="48" height="48" fill="none" xmlns="http://www.w3.org/2000/svg"><path d="M3 24.316c0 3.425 3.151 6.622 8.12 8.425-.992 5.3-.178 9.573 2.542 11.238 2.796 1.712 6.96.527 10.914-3.14 3.854 3.519 7.748 4.904 10.466 3.234 2.793-1.716 3.642-6.278 2.623-11.745 5.175-1.816 8.07-4.542 8.07-8.012 0-3.346-3.158-6.24-8.06-8.031 1.099-5.693.169-9.862-2.664-11.595-2.731-1.672-6.67-.215-10.581 3.397-4.068-3.834-7.97-5.004-10.8-3.267-2.728 1.677-3.507 6.027-2.511 11.426C6.32 18.023 3 20.983 3 24.316z" fill="#fff"/><path d="M36.638 18.063a24.338 24.338 0 00-1.222-.409c.068-.293.131-.588.189-.884.925-4.765.32-8.603-1.745-9.866-1.98-1.212-5.218.051-8.488 3.072-.322.298-.637.605-.945.92-.206-.21-.415-.415-.629-.617-3.427-3.23-6.862-4.59-8.925-3.323-1.978 1.215-2.564 4.824-1.731 9.34.083.446.176.891.28 1.333-.486.147-.955.303-1.404.47C8 19.584 5.434 21.914 5.434 24.331c0 2.496 2.754 5 6.94 6.518.339.123.681.236 1.026.34-.112.477-.212.957-.299 1.439-.793 4.437-.173 7.96 1.8 9.167 2.037 1.247 5.457-.034 8.787-3.124.263-.244.527-.503.792-.774.333.34.675.672 1.026.993 3.225 2.946 6.41 4.135 8.382 2.924 2.035-1.25 2.697-5.035 1.838-9.64-.066-.351-.142-.71-.228-1.076.24-.076.476-.153.706-.234 4.35-1.53 7.182-4.003 7.182-6.533 0-2.426-2.65-4.771-6.748-6.27z" fill="#53C1DE"/><path d="M35.694 29.232c-.207.073-.42.143-.637.211-.48-1.614-1.13-3.33-1.922-5.103a41.886 41.886 0 001.847-5.028c.388.12.765.245 1.128.378 3.512 1.283 5.654 3.18 5.654 4.642 0 1.557-2.313 3.578-6.07 4.9zm-1.559 3.278c.38 2.036.434 3.877.183 5.316-.226 1.293-.68 2.155-1.243 2.5-1.196.735-3.754-.22-6.512-2.74a23.77 23.77 0 01-.954-.923c1.069-1.241 2.138-2.684 3.18-4.287 1.836-.173 3.569-.455 5.14-.84.078.33.147.656.206.974zM18.372 40.2c-1.168.437-2.099.45-2.662.105-1.197-.732-1.694-3.561-1.016-7.355.081-.449.174-.895.278-1.338 1.554.365 3.275.628 5.114.786a41.49 41.49 0 003.258 4.272c-.236.242-.477.477-.723.706-1.473 1.367-2.948 2.336-4.249 2.823zm-5.474-10.978c-1.85-.671-3.38-1.544-4.427-2.496-.941-.855-1.416-1.705-1.416-2.394 0-1.467 2.06-3.338 5.496-4.61.432-.158.867-.303 1.307-.435a42.842 42.842 0 001.85 5.087 43.49 43.49 0 00-1.873 5.16 19.1 19.1 0 01-.937-.312zm1.835-13.257c-.713-3.87-.24-6.787.952-7.52 1.27-.78 4.077.333 7.037 3.121.189.178.379.365.57.558a40.888 40.888 0 00-3.234 4.246 37.504 37.504 0 00-5.064.835 26.508 26.508 0 01-.261-1.24zm16.37 4.29a55.54 55.54 0 00-1.153-2.014c1.21.162 2.37.377 3.46.641a38.193 38.193 0 01-1.215 3.469 61.346 61.346 0 00-1.091-2.096zm-6.675-6.901c.747.86 1.496 1.82 2.233 2.861a44.978 44.978 0 00-4.486 0 37.467 37.467 0 012.253-2.861zm-6.72 6.913c-.371.685-.729 1.38-1.07 2.083a39.534 39.534 0 01-1.206-3.486 34.656 34.656 0 013.44-.627c-.402.667-.79 1.344-1.163 2.03zm1.199 10.282a32.699 32.699 0 01-3.498-.597 40.111 40.111 0 011.23-3.556 51.548 51.548 0 002.268 4.153zm5.566 4.883a38.211 38.211 0 01-2.284-2.9c.727.03 1.468.045 2.22.045.774 0 1.539-.018 2.292-.054a36.247 36.247 0 01-2.229 2.909zm7.738-9.097a37.944 37.944 0 011.274 3.543c-1.1.266-2.288.481-3.54.64a59.78 59.78 0 002.265-4.183zm-2.505 1.274a57.123 57.123 0 01-1.821 3.118 46.27 46.27 0 01-3.476.13c-1.18 0-2.33-.04-3.436-.116a49.248 49.248 0 01-3.474-6.368 49.954 49.954 0 011.615-3.247 48.87 48.87 0 011.84-3.109 43.273 43.273 0 016.918.001 52.422 52.422 0 011.829 3.099 57.668 57.668 0 011.636 3.232 53.015 53.015 0 01-1.631 3.26zM33.05 8.394c1.271.778 1.765 3.915.967 8.029-.052.268-.11.535-.17.8a36.775 36.775 0 00-5.075-.85 40.112 40.112 0 00-3.208-4.25c.284-.29.575-.574.872-.85 2.802-2.587 5.421-3.61 6.614-2.879z" fill="#fff"/><path d="M24.41 20.735c1.871 0 3.389 1.61 3.389 3.597 0 1.986-1.518 3.597-3.39 3.597-1.871 0-3.388-1.61-3.388-3.597 0-1.986 1.517-3.597 3.389-3.597z" fill="#53C1DE"/></svg>
    <path d="M29.2516 33.093C33.73 30.5067 37.4716 27.0685 39.6534 23.5348C41.8352 20.0011 42.2785 16.6613 40.8857 14.2501C40.7862 14.0779 40.8277 13.8337 41.0009 13.5712C41.1742 13.3088 41.465 13.0496 41.8095 12.8506C42.154 12.6517 42.5239 12.5293 42.8378 12.5104C43.1518 12.4915 43.384 12.5776 43.4835 12.7499C44.8763 15.161 44.1593 18.6589 41.4903 22.4739C38.8213 26.289 34.4189 30.1088 29.2516 33.093V33.093Z" fill="gold">
                      <animateTransform attributeName="transform" type="rotate" from="180 0 0" to="0 0 0" dur="1s" repeatCount="indefinite" />
                      </path>
    
    </svg>